# xmcd CD database file
# Copyright (C) 1997 Ti Kan
# 
# Track frame offsets:
#     182
#     11832
#     29407
#     44352
#     59755
#     71540
#     86107
#     101265
#     119587
#     137360
# 
# Disc length: 1985 seconds
# 
# Revision: 1
# Processed by: cddbd v1.4b41PL1 Copyright (c) Steve Scherf et al.
# Submitted via: DiscPlay 4.0.3
# 
DISCID=8a07bf0a
DTITLE=Buddy Miller and The Sacred Cows - Man on the Moon
DYEAR=1900
DGENRE=
TTITLE0=Permanent Romance
TTITLE1=When I'm With You
TTITLE2=My Love Will Follow You
TTITLE3=Jesus By My Side
TTITLE4=Loving Arms
TTITLE5=I Had It All
TTITLE6=How I Got To Memphis
TTITLE7=Living On Love
TTITLE8=It's Been A Change
TTITLE9=I Lift Them Up
EXTD=
EXTT0=
EXTT1=
EXTT2=
EXTT3=
EXTT4=
EXTT5=
EXTT6=
EXTT7=
EXTT8=
EXTT9=
PLAYORDER=
